<?xml version="1.0" encoding="utf-8"?>
<svg id="master-artboard" viewBox="0 0 1310 1310" version="1.1" xmlns="http://www.w3.org/2000/svg" x="0px" y="0px" style="enable-background:new 0 0 336 235.2;" width="1310px" height="1310px"><rect id="ee-background" x="0" y="0" width="1310" height="1310" style="fill: white; fill-opacity: 0; pointer-events: none;"/><g transform="matrix(0.21779605746269226, 0, 0, 0.21779605746269226, 317.340576171875, 721.4772338867188)"><metadata id="metadata8"/><g transform="matrix(7.136513710021972, 0, 0, -7.136513710021972, -2951.1282188580653, 9880.90248299043)" id="g10"><g transform="matrix(0.12271377670886734, 0, 0, 0.12271377670886734, -65.62761017152673, -262.5351221976657)" id="g12"><g transform="scale(1.08406)" id="g18"/><g transform="scale(1.05202)" id="g22"><path id="path24" style="fill:#233862;fill-opacity:1;fill-rule:nonzero;stroke:none" d="m 3772.21,15466.9 c 0,0 693.26,833.1 1060.28,300.1 0,0 273.82,-113.6 372.86,-579.7 101.04,-475.5 -215.17,-837 -378.68,-747.6 -104.86,57.2 -184.24,-126.3 -184.24,-126.3 l -870.22,1153.5"/></g><g transform="matrix(1.0471299886703491, 0, 0, 1.0471299886703491, 3.637978807091713e-12, 31.917689003013948)" id="g26"><path id="path28" style="fill:#233862;fill-opacity:1;fill-rule:nonzero;stroke:none" d="m 4778.97,15925.4 c 0,0 93.64,374.6 643.82,257.5 0,0 -263.38,33.2 -335.58,-68.2 0,0 208.77,95.5 339.48,15.6 130.71,-80 152.18,-349.3 132.66,-431.2 -19.51,-81.9 -163.87,-325.8 -259.48,-325.8 -95.59,0 -208.75,83.9 -208.75,83.9 l -312.15,468.2"/></g><path id="path30" style="fill:#ffb27d;fill-opacity:1;fill-rule:nonzero;stroke:none" d="m 5866.8,10476.8 c -26.4,-0.6 -52.9,-0.9 -79.5,-0.9 -95.2,0 -189.5,3.7 -282.8,11 h -0.1 c -675,52.4 -1297.7,291.3 -1816.8,665.2 68.3,348.3 64.7,607.8 35,826 -35.7,262.4 -109.1,465 -140.5,689.9 -13.1,92.9 -18.9,189.7 -12,296.1 15.6,240 92.7,486.1 184.8,703.1 -0.1,0.1 -0.1,0.2 0,0.3 75.8,178.7 161.9,337.4 232.2,456 80.7,136.2 140.7,219.5 140.7,219.5 0,0 0.4,0.1 1.2,0.1 0.4,0.1 0.9,0.1 1.5,0.2 7,0.7 27.2,2.6 57.6,5.4 3.3,0.3 6.7,0.7 10.3,1 34.5,18.1 43.7,162.6 43.3,315.1 0,8.9 -0.1,17.8 -0.2,26.8 -0.1,17.8 -0.4,35.7 -0.8,53.4 -0.2,11.1 -0.5,22.1 -0.8,33 -0.1,5.4 -0.3,10.8 -0.4,16.2 -0.2,5.4 -0.3,10.8 -0.5,16 -0.3,7.8 -0.5,15.5 -0.8,23.1 -0.5,13.1 -1,25.8 -1.5,38.1 0,1 -0.1,1.9 -0.1,2.8 -0.4,9.1 -0.8,18 -1.2,26.5 -0.3,5.8 -0.5,11.4 -0.8,16.8 -0.5,8.7 -0.9,17 -1.3,25 -0.1,3.1 -0.3,6.1 -0.5,9.1 -1.4,25.8 -2.7,47.3 -3.6,62.8 -0.1,1.4 -0.2,2.8 -0.3,4.2 -1,14.9 -1.6,23.3 -1.6,23.3 l 420.2,83.2 h 0.1 l 161.6,31.9 35.1,7 36.7,7.3 c 0,-0.1 0,-0.1 0,-0.2 -0.1,-38.6 0.7,-76.1 2.3,-112.3 16.3,-366.2 116.7,-605 191.2,-664.5 8.6,-7 16.8,-11.5 24.5,-13.5 37.4,-7.7 77.8,-28.8 119.4,-61.4 284.3,-222.7 629.5,-984.1 524,-1695.3 -15.4,-103.5 -40.2,-206 -76.3,-305.7 -17.1,-47.1 -33.2,-91.1 -48.4,-132.3 -0.1,-0.2 -0.1,-0.4 -0.2,-0.6 -121.1,-328.4 -182.9,-480.3 -179.5,-622.2 4.8,-202.2 141.8,-383.8 428.3,-1026.2 8.4,-18.8 8.2,-39.1 0.5,-60.3"/><path id="path32" style="fill:#e8945b;fill-opacity:1;fill-rule:nonzero;stroke:none" d="m 4227.27,15041.9 c 0,0 14.04,-194.2 14.46,-377.1 345.26,9.7 527.75,324.6 602.53,499.2 l -616.99,-122.1"/><g transform="scale(1.01736)" id="g34"><path id="path36" style="fill:#233862;fill-opacity:1;fill-rule:nonzero;stroke:none" d="m 4824.23,14971.3 c 0,0 177.85,281 220.53,521.3 30.48,171.5 -56.89,807.4 -695.88,715.8 0,0 -185.59,-18.3 -360.03,-136.1 -138.74,-93.7 -338.96,-296 -115.09,-850.9 l 58.15,-187.4 892.32,-62.7"/></g><path id="path38" style="fill:#ffb27d;fill-opacity:1;fill-rule:nonzero;stroke:none" d="m 4111.97,14868.7 c 0,0 816.88,-13.5 817.44,495.3 0.56,508.9 106.37,849.8 -415.16,879.9 -521.53,30.1 -623.08,-163.9 -664.58,-333.7 -41.5,-169.8 49.83,-1024.9 262.3,-1041.5"/><g transform="scale(1.00837)" id="g40"><path id="path42" style="fill:#233862;fill-opacity:1;fill-rule:nonzero;stroke:none" d="m 4162.78,16073.3 c 0,0 -165.64,-132.1 -206.04,-260.6 -40.38,-128.5 -58.54,-393.1 -135.64,-384.1 0,0 -167.11,402.4 20.69,630 199.14,241.4 320.99,14.7 320.99,14.7"/></g><path id="path44" style="fill:#ffb27d;fill-opacity:1;fill-rule:nonzero;stroke:none" d="m 6686.7,10589.2 c -138,-35.5 -279.3,-63 -423.2,-82 -209.6,376.3 -426.2,792.5 -462.6,965.4 -23.1,109.3 -78.4,324 -143.7,567.1 -2.5,9.6 -5.2,19.3 -7.8,29.1 -10.4,38.6 -21,77.8 -31.7,117.3 -2.1,7.9 -4.3,15.8 -6.4,23.7 -0.1,0.2 -0.1,0.5 -0.2,0.8 -18.5,67.9 -37.3,136.6 -56,204.6 -0.1,0.3 -0.2,0.7 -0.3,1.1 -0.1,0.3 -0.2,0.7 -0.3,1 -117.3,426.9 -230.4,825.5 -230.4,825.5 l -60.4,261.5 -121.7,527.2 v 0.1 l -84.2,364.5 c 0,0 5.9,-0.6 16.7,-1.8 26.9,-3.1 84.4,-10.2 156.4,-21.6 130.8,-20.8 309.8,-56.2 440.9,-108.9 2.1,-0.8 4.1,-1.6 6.1,-2.5 0.5,-0.2 1.1,-0.5 1.6,-0.7 1.1,-0.4 2.1,-0.9 3.2,-1.3 65.2,-27.2 117.2,-58.9 143.6,-95.4 0.2,-0.3 0.4,-0.5 0.6,-0.7 4.3,-6 7.9,-12.1 10.8,-18.4 169.4,-372.6 338.6,-1312.8 457.5,-1983.5 3,-16.7 5.9,-33.2 8.8,-49.6 61.9,-349.7 109.2,-617 134.3,-675.8 43.2,-100.7 138.3,-467 248.4,-846.7"/><path id="path46" style="fill:#ffb27d;fill-opacity:1;fill-rule:nonzero;stroke:none" d="m 4178.2,14158 -89.5,-477.7 -79.1,-421.9 -49.4,-263.8 c 0,0 -125.3,-523.9 -237.6,-1016.5 -13.1,-57.4 -26,-114.3 -38.5,-170 -52,-231.3 -97,-440.2 -119.7,-563.4 -85.4,67.3 -167.7,138.3 -246.6,213 -105,99 -203.9,204.3 -296.2,315.3 4.4,32.7 8.9,66.3 13.5,100.6 39.4,293.1 86.2,637.3 139.1,964 68.9,425.9 148.2,822.2 235.2,1036.8 14.9,36.6 54.5,69.9 108.5,99.8 0,0 0,0 0,0.1 13,7.1 27,14.2 41.6,21 55.5,26 120.9,49 188.1,68.9 82.2,24.4 167.1,44.3 239.5,59.3 24.1,5 46.9,9.4 67.6,13.4 74,13.9 123.5,21.1 123.5,21.1"/><path id="path48" style="fill:#f99746;fill-opacity:1;fill-rule:nonzero;stroke:none" d="m 6304,12111.7 c 22.5,10.4 45.3,22 68.2,34.6 -138.4,675.5 -335.2,1622.4 -532.3,1997.7 -3.4,6.5 -7.8,12.9 -13,19.2 -0.2,0.2 -0.4,0.4 -0.6,0.7 -9.2,10.7 -21,21.1 -34.9,31.1 1.2,1.6 1.9,2.4 1.9,2.4 -32.9,23.9 -71.9,44.9 -113.8,63.2 -0.5,0.2 -1.1,0.5 -1.6,0.7 -2,0.9 -4,1.7 -6.1,2.5 -192.4,82.2 -440.8,109.2 -440.8,109.2 0,0 0,-0.1 -0.1,-0.3 -0.6,-2.7 -5.1,-22.5 -12.5,-53.3 -15.6,-65.4 -44.3,-180.7 -76.4,-287.8 v -0.1 c -33.6,-111.8 -70.8,-214.6 -100.9,-242.1 -53.5,-49 -631.2,-120.6 -952.4,-109.1 -120.9,4.4 -205.5,20.4 -212.2,53.9 -13.7,68.4 87.4,253.1 178.2,402.7 64.6,106.4 124,195.1 133.4,211.8 1,1.6 -45.7,-3.9 -57.6,-5.4 -0.6,-0.1 -1.1,-0.1 -1.5,-0.2 -0.8,0 -1.2,-0.1 -1.2,-0.1 -121.6,-16 -207.3,-28.2 -269.2,-38.7 -57.6,-9.9 -94.5,-18.3 -120.8,-27 0,0 -0.29,-0.1 -0.69,-0.2 -19.59,-5.3 -488.12,-143.9 -693.57,-1300.6 0,0 166.86,-228.7 401.9,-296.2 6.16,-1.8 12.41,-3.3 18.66,-4.8 0,-0.1 0,-0.1 0,-0.1 -20,-333.8 -90.3,-776.1 -146.3,-1217.7 78.9,-74.7 161.2,-145.7 246.6,-213 40.4,-31.7 81.4,-62.6 123.2,-92.6 519.1,-373.9 1141.8,-612.8 1816.8,-665.2 h 0.1 c 93.3,-7.3 187.6,-11 282.8,-11 26.6,0 53.1,0.3 79.5,0.9 41.8,0.9 83.3,2.5 124.7,4.9 -2.9,13.1 -5.8,26.3 -8.8,39.7 -6,26.8 -12.2,54.1 -18.8,82.1 -3.2,14 -6.5,28.1 -9.8,42.4 -7.9,33.4 -16,67.5 -24.3,102.3 -8.3,34.8 -16.8,70.3 -25.5,106.4 -11.3,46.9 -22.9,94.8 -34.6,143.5 -4,16.7 -8,33.4 -12,50.3 -4.1,17.2 -8.3,34.6 -12.4,52 -17.3,72.6 -34.7,146.8 -51.8,222 -2.8,12.4 -5.6,24.8 -8.4,37.3 -7.2,31.8 -14.3,63.7 -21.3,95.8 -2.6,11.9 -5.2,23.9 -7.8,35.9 -5.3,24.2 -10.5,48.5 -15.5,72.8 -2.6,12.2 -5.2,24.4 -7.6,36.6 -3.5,16.9 -7,33.9 -10.4,50.9 -10.4,51.1 -20.3,102.3 -29.8,153.5 -3.2,17.5 -6.4,35 -9.5,52.6 -6.6,36.7 -12.9,73.4 -18.9,110 -2,12.2 -4,24.4 -5.9,36.6 -1.9,12.2 -3.8,24.3 -5.7,36.5 1.5,-0.4 3,-0.8 4.5,-1.2 89.1,-23.2 345.6,-68.5 646.8,72" transform="matrix(1, 0, 0, 1, -3.637978807091713e-12, 31.917689003017585)"/><path id="path50" style="fill:#ef7e29;fill-opacity:1;fill-rule:nonzero;stroke:none" d="m 5991.5,10481.7 c -41.4,-2.4 -82.9,-4 -124.7,-4.9 -26.4,-0.6 -52.9,-0.9 -79.5,-0.9 -95.2,0 -189.5,3.7 -282.8,11 h -0.1 c -46.1,51.7 -93.8,109 -142.9,172.4 -743.9,961.6 -63.1,2091.6 28.1,2112.6 45.4,10.5 110.8,-170.2 164.9,-354.6 0.1,-0.3 0.2,-0.7 0.3,-1 0.1,-0.4 0.2,-0.8 0.3,-1.1 21,-71.4 40.3,-143.3 56,-204.6 0.1,-0.3 0.1,-0.6 0.2,-0.8 2.1,-8.3 4.2,-16.4 6.2,-24.3 21.6,-85.1 35.2,-144.6 35.2,-144.6 1.9,-12.2 3.8,-24.3 5.7,-36.5 1.9,-12.2 3.9,-24.4 5.9,-36.6 6,-36.6 12.3,-73.3 18.9,-110 3.1,-17.6 6.3,-35.1 9.5,-52.6 9.5,-51.2 19.4,-102.4 29.8,-153.5 3.4,-17 6.9,-34 10.4,-50.9 2.5,-12.2 5,-24.4 7.6,-36.6 5,-24.3 10.2,-48.6 15.5,-72.8 2.6,-12 5.2,-24 7.8,-35.9 7,-32.1 14.1,-64 21.3,-95.8 2.8,-12.5 5.6,-24.9 8.4,-37.3 17.1,-75.2 34.5,-149.4 51.8,-222 4.1,-17.4 8.3,-34.8 12.4,-52 4,-16.9 8,-33.6 12,-50.3 11.7,-48.7 23.3,-96.6 34.6,-143.5 8.7,-36.1 17.2,-71.6 25.5,-106.4 8.3,-34.8 16.4,-68.9 24.3,-102.3 3.3,-14.3 6.6,-28.4 9.8,-42.4 6.6,-28 12.8,-55.3 18.8,-82.1 3,-13.4 5.9,-26.6 8.8,-39.7"/><path id="path52" style="fill:#ffffff;fill-opacity:1;fill-rule:nonzero;stroke:none" d="m 3872.95,15405.6 c 0,0 217.22,-49.5 691.49,57.4 l 127.01,-282.2 c 0,0 -246.54,-366.3 -623.45,-312.2 -161.23,23.2 -195.05,537 -195.05,537"/><path id="path54" style="fill:#ffffff;fill-opacity:1;fill-rule:nonzero;stroke:none" d="m 4564.44,15463 374.14,228.9 18.14,-68.8 -392.28,-208.3 v 48.2"/><path id="path56" style="fill:#ffffff;fill-opacity:1;fill-rule:nonzero;stroke:none" d="m 4638.13,15219.2 c 11.08,2 294.59,315.2 294.59,315.2 l -1.52,-51.4 -273.68,-338.6 -19.39,74.8"/><g transform="scale(1.01668)" id="g58"><path id="path60" style="fill:#233862;fill-opacity:1;fill-rule:nonzero;stroke:none" d="m 4098.26,15922.2 c 0,0 156.74,-614.9 582.73,-811.8 0,0 -425.99,377.8 -462.17,783.7 -36.16,405.9 -120.56,28.1 -120.56,28.1"/></g><g transform="scale(1.01476)" id="g62"><path id="path64" style="fill:#233862;fill-opacity:1;fill-rule:nonzero;stroke:none" d="m 4081.97,16020 c 0,0 220.4,-588.3 558.66,-675.3 338.25,-87 484.98,3.7 484.98,3.7 0,0 -259.46,206.1 -313.3,565.9 0,0 -564.07,385.7 -730.34,105.7"/></g><path id="path66" style="fill:#ffb27d;fill-opacity:1;fill-rule:nonzero;stroke:none" d="m 7742.5,12957.9 c -621.49,-196.1 -1696.9,333.2 -1696.9,333.2 0,0 573.03,430.1 543.01,1324.3 l 480.57,-387.3 326.43,-263 c 0,0 -1.34,-155.1 -37.02,-426.8 -9.42,-71.5 -21.13,-151.2 -35.94,-238.3 266.8,-146.5 419.85,-342.1 419.85,-342.1"/><path id="path68" style="fill:#ed975d;fill-opacity:1;fill-rule:nonzero;stroke:none" d="m 7395.61,13965.1 c 0,0 -1.34,-155.1 -37.02,-426.8 -361.7,62 -771.99,646.6 -771.99,646.6 184.15,53.2 345.41,62.8 482.58,43.2 l 326.43,-263"/><path id="path70" style="fill:#ffb27d;fill-opacity:1;fill-rule:nonzero;stroke:none" d="m 7585.68,13979.8 c 0,0 -1026.6,-170.5 -1122.97,470.4 -96.37,641 -293.77,1050.7 357.61,1186.7 651.39,135.9 815.81,-89.5 900.01,-295.6 84.2,-206.1 129.91,-1300.6 -134.65,-1361.5"/><path id="path72" style="fill:#2b478b;fill-opacity:1;fill-rule:nonzero;stroke:none" d="m 8389,11968.4 c -124.5,501 -410.9,831 -672.3,1073.7 l -214.7,189.8 c -17.7,-3.6 -35.6,-6.8 -53.5,-9.6 -198.8,-31.1 -407.2,-12.2 -615.6,90.6 -245.9,121.3 -513.6,252.1 -557.2,220.9 -3.7,-2.7 -7.3,-5.5 -10.9,-8.3 -78.2,-60.4 -150.3,-138.5 -216.2,-232.1 -0.7,-0.9 -1.3,-1.8 -2,-2.8 -357.2,-509.3 -534.5,-1473.5 -530.5,-2545.8 0.1,-35.7 0.5,-71.6 1,-107.6 0.1,-11.2 0.3,-22.4 0.6,-33.6 v -3 c 0.7,-38.2 1.6,-76.5 2.8,-114.9 88.1,-6.5 177,-9.8 266.8,-9.8 26.6,0 53.1,0.3 79.5,0.9 41.8,0.9 83.3,2.5 124.7,4.9 91.6,5 182.4,13.6 272,25.5 57.5,7.6 114.6,16.5 171.3,26.9 18.3,3.2 36.5,6.7 54.6,10.4 66.5,13 132.3,28 197.3,44.7 50.2,12.9 100,26.9 149.3,42 75.6,22.9 150.2,48.4 223.6,76.2 536.6,202.9 1012,530.5 1390.9,947.6 -18.6,117.8 -39.1,223.2 -61.5,313.4"/><path id="path74" style="fill:#ffffff;fill-opacity:1;fill-rule:nonzero;stroke:none" d="m 7786,14622 c 0,0 -245.47,-57.6 -841.48,76.8 l -159.6,-354.7 c 0,0 309.81,-460.3 783.46,-392.3 C 7771,13980.9 7786,14622 7786,14622"/><path id="path76" style="fill:#ffffff;fill-opacity:1;fill-rule:nonzero;stroke:none" d="m 6944.52,14698.8 -121.31,217.7 -62.13,6.2 183.44,-284.5 v 60.6"/><path id="path78" style="fill:#ffffff;fill-opacity:1;fill-rule:nonzero;stroke:none" d="m 6851.91,14392.4 c -13.92,2.5 -370.2,396.1 -370.2,396.1 l 1.92,-64.6 343.91,-425.5 24.37,94"/><path id="path80" style="fill:#2b478b;fill-opacity:1;fill-rule:nonzero;stroke:none" d="m 6461.87,14511.9 c 0,0 105.35,17.6 88.36,162.8 -16.99,145.1 -16.79,334.7 101.2,299.4 117.98,-35.4 123.84,-129.8 172.33,-74.7 48.48,55.2 49.35,287.6 400.39,303.8 351.05,16.1 493.7,-106 656.94,-34.3 163.25,71.8 171.87,318.9 171.87,318.9 0,0 -46.43,-88.2 -116.56,-116.3 0,0 272.35,372.5 -42.97,627.9 -315.31,255.4 -636.81,88.2 -819.32,77.2 -402.03,-24.3 -661.74,-48.5 -793.07,-312.7 -131.34,-264.1 -77.15,-997.7 180.83,-1252"/><path id="path82" style="fill:#1f396d;fill-opacity:1;fill-rule:nonzero;stroke:none" d="m 7135.6,11497.2 c 0,0 0,-0.1 -0.1,-0.2 0,-0.1 -0.1,-0.3 -0.2,-0.6 -0.1,-0.3 -0.2,-0.7 -0.4,-1.2 -7.8,-30.4 -101,-394.5 -75.3,-787.8 -73.4,-27.8 -148,-53.3 -223.6,-76.2 -49.3,-15.1 -99.1,-29.1 -149.3,-42 -65,-16.7 -130.8,-31.7 -197.3,-44.7 -18.1,-3.7 -36.3,-7.2 -54.6,-10.4 18.7,46.6 37.7,92.5 57.1,137.5 v 0.2 c 185.1,429.5 404.2,771.9 643.7,825.4"/><path id="path84" style="fill:#2b478b;fill-opacity:1;fill-rule:nonzero;stroke:none" d="m 5891.8,12836.5 c 0,0 -173.8,-1005.8 -334.7,-1992.8 0,-0.1 0,-0.1 0,-0.2 -13.3,-81.3 -26.4,-162.3 -39.4,-242.7 v -0.2 c -6.1,-38 -12.2,-75.8 -18.2,-113.3 1.6,-0.1 3.3,-0.3 4.9,-0.4 h 0.1 c 5.3,-0.4 10.7,-0.8 16,-1.2 88.1,-6.5 177,-9.8 266.8,-9.8 26.6,0 53.1,0.3 79.5,0.9 41.8,0.9 83.3,2.5 124.7,4.9 91.6,5 182.4,13.6 272,25.5 57.5,7.6 114.6,16.5 171.3,26.9 18.3,3.2 36.5,6.7 54.6,10.4 66.5,13 132.3,28 197.3,44.7 50.2,12.9 100,26.9 149.3,42 156.2,456.1 288.3,833.6 298.9,864 0.2,0.5 0.3,0.9 0.4,1.2 0.1,0.3 0.2,0.5 0.2,0.6 0.1,0.1 0.1,0.2 0.1,0.2 l -1243.8,1339.3"/><g transform="matrix(1.0131800174713135, 0, 0, 1.0131800174713135, 5580.378519488748, 281.8372989640775)" id="g112"><path id="path114" style="fill:#ffb27d;fill-opacity:1;fill-rule:nonzero;stroke:none" d="m 15962.4,13528.6 c 0,0 -1316.8,-323.6 -1505.7,499.5 -189,823 -486.2,1335.6 346.5,1577.1 832.8,241.4 1068.7,-35 1198.6,-294.4 129.9,-259.4 298.2,-1676.8 -39.4,-1782.2"/></g><g transform="scale(1.01002)" id="g116"/><g transform="scale(1.10376)" id="g140"><path id="path142" style="fill:#f4a36c;fill-opacity:1;fill-rule:nonzero;stroke:none" d="m 16300,11138.3 c -117.5,-201.5 -256.1,-389.3 -412.7,-560.2 -142.8,487.4 -288.9,925.2 -345,1090.5 -0.3,0.8 -0.6,1.6 -0.9,2.4 -14.8,43.6 -23,67.5 -23,67.5 l 409.1,67.9 3.3,0.5 c 128.6,-226.3 251.7,-449.6 369.2,-668.6"/></g><g transform="scale(1.13849)" id="g144"><path id="path146" style="fill:#ef7e29;fill-opacity:1;fill-rule:nonzero;stroke:none" d="m 15893.1,13137.5 h -554.2 c -223.9,0 -407,183.2 -407,407 v 554.2 c 0,223.8 183.1,406.9 407,406.9 h 554.2 c 223.8,0 406.9,-183.1 406.9,-406.9 v -554.2 c 0,-223.8 -183.1,-407 -406.9,-407"/></g><g transform="scale(1.12083)" id="g148"><path id="path150" style="fill:#ebf3fa;fill-opacity:1;fill-rule:nonzero;stroke:none" d="m 16257.1,13680.2 v 0 c -36.8,-23.8 -90.9,-18.9 -120.3,10.9 l -649.3,659.3 c -29.4,29.8 -23.3,73.6 13.4,97.4 v 0 c 36.8,23.8 91,18.8 120.3,-11 l 649.4,-659.2 c 29.4,-29.8 23.3,-73.7 -13.5,-97.4"/></g><g transform="scale(1.12083)" id="g152"><path id="path154" style="fill:#ebf3fa;fill-opacity:1;fill-rule:nonzero;stroke:none" d="m 15500.9,13680.2 v 0 c 36.8,-23.8 91,-18.9 120.3,10.9 l 649.4,659.3 c 29.4,29.8 23.3,73.6 -13.5,97.4 v 0 c -36.8,23.8 -90.9,18.8 -120.3,-11 l -649.3,-659.2 c -29.4,-29.8 -23.3,-73.7 13.4,-97.4"/></g><g transform="scale(1.68377)" id="g156"><path id="path158" style="fill:#d2e4ff;fill-opacity:1;fill-rule:nonzero;stroke:none" d="m 16300,8313.43 c 0,-110.94 -8.4,-219.8 -24.8,-326.19 0.1,-0.08 0.1,-0.08 0,-0.08 -0.3,-2.34 -0.7,-4.74 -1.1,-7.08 -88.9,-567.73 -401.4,-1061.26 -844.6,-1387.72 -128.6,-94.82 -268.3,-175.52 -416.7,-239.83 -49.1,-21.34 -99,-40.78 -149.9,-58.34 -27.5,-9.62 -55.3,-18.6 -83.4,-27.06 -195,-58.59 -401.7,-90.06 -615.8,-90.06 -299.8,0 -585.2,61.78 -844.1,173.37 -200.1,86.04 -384.4,201.86 -547.3,341.81 -186.9,160.56 -345.7,352.86 -468.1,568.64 -176.3,310.65 -276.9,669.83 -276.9,1052.54 0,1179.88 956.5,2136.27 2136.4,2136.27 1179.8,0 2136.3,-956.39 2136.3,-2136.27"/></g><g transform="scale(1.55704)" id="g160"><path id="path162" style="fill:#2c3a64;fill-opacity:1;fill-rule:nonzero;stroke:none" d="m 15301.2,10780.8 c -3.9,35.6 -60.6,418.4 -648.5,394.3 0,0 290.9,-12.6 350.3,-135.6 0,0 -208.1,141.8 -364.2,79.4 -156,-62.5 -228.8,-349.7 -222.8,-441.8 6,-92.2 117.2,-382.5 220.6,-400.1 39.2,-6.7 83.2,-0.8 122.9,9.1 -23.8,-44.2 -46.7,-92.7 -68.1,-146.5 -197.7,-497.89 79,-949.02 273.1,-882.22 124.5,42.85 161.5,-345.14 161.5,-345.14 l 1174,1266.16 c 0,0 -524.1,903.7 -998.8,602.4"/></g><g transform="scale(1.53265)" id="g164"><path id="path166" style="fill:#ed985f;fill-opacity:1;fill-rule:nonzero;stroke:none" d="m 16300,7621.76 c -148.6,-80.37 -330.4,-140.06 -553.1,-166.01 -835,-97.53 -1070.4,625.21 -1135.1,1110.54 118.1,51.17 224.1,53.56 285.3,54.05 59.5,0.39 122,-1.88 173.5,-5.04 99.2,59.85 267.3,331.24 346.9,772.81 l 37.2,-14.53 622,-246.97 c 0,0 -52.1,-200.68 -87.9,-391.84 -27.9,-149.6 -45.8,-293.56 -21.1,-332.02 48.9,-16.43 78.1,-26.86 78.1,-26.86 0,0 0.1,-0.22 0.3,-0.64 7,-15.08 159.1,-341.89 253.9,-753.49"/></g><g transform="scale(1.51166)" id="g168"><path id="path170" style="fill:#dd8950;fill-opacity:1;fill-rule:nonzero;stroke:none" d="m 16300,9253.23 c 0,0 -52.9,-203.28 -89.2,-397.27 -364.4,77.9 -496.4,447.8 -541.6,647.66 l 630.8,-250.39"/></g><g transform="scale(1.56393)" id="g172"><path id="path174" style="fill:#ed985f;fill-opacity:1;fill-rule:nonzero;stroke:none" d="m 15835.1,8716.4 c 0,0 -842.1,129.08 -753.7,652.32 88.5,523.22 39.4,892.28 580.8,831.98 541.4,-60.3 611.9,-277.57 624.9,-459.4 12.9,-181.82 -230.6,-1044.99 -452,-1024.9"/></g><g transform="scale(1.57987)" id="g176"><path id="path178" style="fill:#2c3a64;fill-opacity:1;fill-rule:nonzero;stroke:none" d="m 16147,9935.17 c -102,177.63 -204.9,159.93 -267.3,122.43 -411.9,327.1 -767.5,7.6 -767.5,7.6 -118.9,-362.09 -423,-529.34 -423,-529.34 0,0 135.5,-119.38 500.1,-89.01 111.4,9.28 219.6,68.9 316.3,147.1 -181.8,-212.91 -403.2,-350.89 -403.2,-350.89 450.1,121.87 716.4,673.7 743.5,732.22 43.1,-54.21 126.2,-170.24 140.2,-272.47 19,-138.92 -8.6,-413.57 72.1,-417.8 0,0 241.8,383.76 88.8,650.16"/></g><g transform="scale(1.68377)" id="g180"><path id="path182" style="fill:#2c3a64;fill-opacity:1;fill-rule:nonzero;stroke:none" d="m 15830.9,8509.31 -222.6,-696.11 c 0,0 28.1,-47.99 100,-90.39 -216.4,-16.38 -540.8,-35.5 -712.9,-18.6 -263.9,25.88 -471.3,-1.42 -471.3,-1.42 0,0 0,-0.07 -0.1,-0.14 -2.7,-5.33 -102.3,-189.05 -332.9,-159.07 -222.4,28.88 -415.4,299.8 -434.2,326.73 -1,0.12 -2.1,0.32 -3.1,0.45 -252,36.35 -349.5,57.1 -349.5,57.1 0,0 -240.8,58.59 -574.4,-189.83 -166.6,-124.02 -366.9,-315.99 -525.7,-477.14 122.4,-215.78 281.2,-408.08 468.1,-568.64 162.9,-139.95 347.2,-255.77 547.3,-341.81 258.9,-111.59 544.3,-173.37 844.1,-173.37 214.1,0 420.8,31.47 615.8,90.06 28.1,8.46 55.9,17.44 83.4,27.06 50.9,17.56 100.8,37 149.9,58.34 l 416.7,239.83 c 443.2,326.46 755.7,819.99 844.6,1387.72 l -2.8,-1.89 c 1.3,2.99 2.7,5.99 3.9,8.97 0.1,0 0.1,0 0,0.08 16.4,106.39 24.8,215.25 24.8,326.19 -106.8,221.63 -469.1,195.88 -469.1,195.88"/></g><g transform="scale(1.45136)" id="g184"><path id="path186" style="fill:#ffb27d;fill-opacity:1;fill-rule:nonzero;stroke:none" d="m 16300,10068.2 c 0,0 -743,136 -843.2,99.1 -100.2,-36.9 -410.5,-332.08 -454.7,-387.27 0,0 36.7,-29.25 86.8,-6.95 49.9,22.3 214.5,133.41 259.4,169.36 45,35.96 171.1,14.59 203.8,-0.5 32.8,-15.09 132.9,-123.64 232.3,-135.48 66,-7.86 106.4,39.31 215.3,41.14 55.1,0.93 145.3,-30.36 197.8,-47.3 l 102.5,267.9"/></g><g transform="scale(1.41047)" id="g188"><path id="path190" style="fill:#ffb27d;fill-opacity:1;fill-rule:nonzero;stroke:none" d="m 16300,10096.3 c 0,0 -97.8,-39.6 -229.8,3.6 -86.6,28.4 -260,-14 -260,-14 0,0 28.5,76.3 99.2,86.4 70.8,10.1 192.5,101.6 192.5,101.6 l 198.1,-177.6"/></g><g transform="scale(1.35739)" id="g192"><path id="path194" style="fill:#ffb27d;fill-opacity:1;fill-rule:nonzero;stroke:none" d="m 16204.2,10509.5 8.1,-133.3 c 0,0 45.9,20.5 62,75.2 16.1,54.7 25.7,159.3 25.7,159.3 l -95.8,-101.2"/></g><g transform="scale(1.39133)" id="g196"><path id="path198" style="fill:#ffb27d;fill-opacity:1;fill-rule:nonzero;stroke:none" d="m 15897.3,10305.7 c 0,0 132.7,58.4 156.2,53.7 23.5,-4.7 163.1,-39.5 163.1,-39.5 0,0 83.4,9.8 73.6,48.3 -9.8,38.6 -209,132.4 -243.1,122.5 -34.1,-9.9 -149.8,-185 -149.8,-185"/></g><g transform="scale(1.66418)" id="g200"><path id="path202" style="fill:#ffb27d;fill-opacity:1;fill-rule:nonzero;stroke:none" d="m 16271.9,8322.45 c 0,0 -102.6,-384.14 -304.4,-422.95 -50.6,-9.76 -109.4,-6.96 -175.4,5.65 -255.2,48.62 -618.7,243.86 -1037.6,428.87 -363.3,160.45 -628.4,212.94 -628.4,212.94 l -191.5,278.96 c 854.9,-99.96 1668.7,-148.63 2082.7,-216.45 282.7,-46.31 254.6,-287.02 254.6,-287.02"/></g><path id="path218" style="fill:#a8d29f;fill-opacity:1;fill-rule:nonzero;stroke:none" d="m 4617.08,3204.3 c 5.21,-9.1 7.89,-13.8 7.89,-13.8 0,0 -4.32,3.5 -12.61,10.2 -68.36,55.4 -404.57,329.9 -756.3,650.1 -486.59,443.2 -1002.8,974 -880.23,1133.6 232.12,302.3 841.31,-514.9 1250.64,-1144 201.79,-309.9 354.91,-574 390.61,-636.1"/><path id="path222" style="fill:#a8d29f;fill-opacity:1;fill-rule:nonzero;stroke:none" d="m 4707.73,3758.6 c -35.48,-191.9 -67.58,-349.6 -85.9,-437.1 -9.95,-48 -15.8,-74.8 -15.8,-74.8 0,0 -11.06,80.1 -25.63,210.1 -13.76,122.8 -30.69,290 -44.38,476.2 -44.98,610 -55.61,1422.3 191.38,1535.3 281.82,128.8 108.95,-1014.4 -19.67,-1709.7"/><path id="path224" style="fill:#82b378;fill-opacity:1;fill-rule:nonzero;stroke:none" d="m 4617.08,3204.3 c -1.53,-1.1 -3.09,-2.4 -4.72,-3.6 -68.36,55.4 -404.57,329.9 -756.3,650.1 93.14,-40.1 240.14,-79.6 370.41,-10.4 201.79,-309.9 354.91,-574 390.61,-636.1"/><path id="path226" style="fill:#82b378;fill-opacity:1;fill-rule:nonzero;stroke:none" d="m 4462.13,4089 c 47.87,-312.2 85.22,-576.8 109.99,-733.8 -26.19,31.3 -53.56,69.6 -81.51,112.7 -0.05,0 -0.05,0 -0.1,0.1 -81.17,191.8 -198.21,469.1 -324.81,770.4 80.09,-81.9 187.28,-160.7 296.43,-149.4"/><path id="path228" style="fill:#82b378;fill-opacity:1;fill-rule:nonzero;stroke:none" d="m 4707.73,3758.6 c -35.48,-191.9 -67.58,-349.6 -85.9,-437.1 -14.75,33.9 -28.63,81.3 -41.43,135.3 -13.76,122.8 -30.69,290 -44.38,476.2 39.05,-56.4 102.87,-136.8 171.71,-174.4"/><path id="path230" style="fill:#a8d29f;fill-opacity:1;fill-rule:nonzero;stroke:none" d="m 4597.22,3216.3 c 3.96,-9.4 6.08,-14.4 6.08,-14.4 -1.52,-0.1 -3.59,4.8 -6.08,14.4"/><path id="path232" style="fill:#ed7d2b;fill-opacity:1;fill-rule:nonzero;stroke:none" d="m 5460.81,1787.8 c -333.4,30.9 -653.58,107.4 -954.44,223.1 -204.56,505.6 -405.02,968.2 -289.75,1211.9 36.04,76.1 89.75,135.5 150.26,181.3 30.42,23.3 63.07,42.8 96.89,59 8.08,3.7 16.03,7.4 24.22,10.9 20.6,8.6 41.55,16.1 62.61,22.3 8.19,2.6 16.38,4.8 24.81,6.8 28.67,7.3 57.57,12.4 86.36,15.5 h 0.12 c 122.29,12.8 242,-9.4 320.29,-66.6 235.57,-172.1 209.35,-508.3 328.95,-1005 53.25,-221.2 104.74,-451.3 149.68,-659.2"/><path id="path234" style="fill:#a8d29f;fill-opacity:1;fill-rule:nonzero;stroke:none" d="m 7711.51,2322.9 c -87.65,-55.2 -177.76,-106.6 -270.21,-154.2 -448.19,-230.7 -951.05,-369.9 -1484.08,-393.1 -208.54,103.5 -359.15,262.3 -416.6,449.5 -1.88,6.1 -3.63,12.2 -5.27,18.3 -18.14,66.7 -25.86,128.2 -25.28,184.9 2.69,244.1 151.55,417.3 340.66,518.4 0.11,0.1 0.34,0.2 0.58,0.2 8.54,4.7 17.2,9 25.98,13.2 v 0.1 c 21.06,10.5 42.6,19.8 64.36,28.5 133.17,52.6 277,72.9 399.75,60.6 4.92,-0.5 9.83,-0.7 14.75,-0.7 7.49,0 15.09,0.6 22.7,1.6 7.61,1.1 15.33,2.6 23.17,4.7 1.4,0.4 2.81,0.7 4.21,1.2 0.82,0.2 1.64,0.4 2.58,0.8 2.92,0.8 5.85,1.6 8.77,2.7 1.41,0.3 2.69,0.8 4.1,1.4 2.92,0.9 5.73,2 8.66,3.2 5.62,2.1 11.35,4.4 17.09,7 3.04,1.4 6.2,2.8 9.36,4.4 1.52,0.6 3.16,1.3 4.68,2.1 9.13,4.5 18.37,9.3 27.73,14.5 3.28,1.8 6.67,3.8 10.18,5.8 26.92,15.3 54.77,33.2 84.15,51.9 3.27,2.1 6.67,4.2 10.06,6.5 32.53,20.8 66.7,42.4 102.86,62.7 4.92,2.8 9.83,5.5 14.86,8.2 10.89,6 22,11.7 33.24,17.2 3.74,1.9 7.6,3.7 11.47,5.5 2.69,1.3 5.49,2.7 8.31,3.8 3.62,1.8 7.13,3.3 10.76,5 6.55,2.9 13.22,5.7 20.01,8.5 112.69,46.3 244.23,67.1 403.03,13.9 246.45,-82.6 388.05,-349.2 452.64,-555.7 h 0.24 c 1.05,-3.3 1.99,-6.6 2.92,-10 1.99,-6.5 3.98,-13.1 5.86,-19.7 1.4,-5 2.69,-10 4.09,-14.9 1.64,-6.2 3.28,-12.4 4.8,-18.6 4.8,-18.6 9.01,-37.3 12.64,-55.9 5.97,-29.8 10.99,-59.4 14.97,-88.6 1.29,-9.6 2.58,-19.2 3.75,-28.7 6.9,-59.1 10.3,-115.5 11.47,-166.2"/><path id="path236" style="fill:#d3f9ca;fill-opacity:1;fill-rule:nonzero;stroke:none" d="m 7037.28,3192.1 c 0,0 238.73,4.4 297.13,-158.4 58.41,-162.9 -104.23,-198.2 -211.6,-139.9 -107.37,58.2 -215.85,262.8 -85.53,298.3"/><path id="path238" style="fill:#82b378;fill-opacity:1;fill-rule:nonzero;stroke:none" d="m 7711.51,2322.9 c -87.65,-55.2 -177.76,-106.6 -270.21,-154.2 -448.19,-230.7 -951.05,-369.9 -1484.08,-393.1 -52.78,-2.3 -105.91,-3.5 -159.39,-3.5 -16.38,0 -32.77,0.1 -49.03,0.4 -99.36,163.6 -174.48,338.1 -208.18,452.6 -1.88,6.1 -3.63,12.2 -5.27,18.3 -18.14,66.7 -25.86,128.2 -25.28,184.9 198.35,-163.3 489.28,-316.8 889.61,-331.5 881.3,-31.9 1251.09,628.7 1251.09,628.7 h 0.12 c 1.05,-3.3 1.99,-6.6 3.04,-10 1.99,-6.5 3.98,-13.1 5.86,-19.7 1.4,-5 2.69,-10 4.09,-14.9 1.64,-6.2 3.28,-12.4 4.8,-18.6 4.68,-18.6 8.89,-37.3 12.64,-55.9 5.97,-29.8 10.99,-59.4 14.97,-88.6 1.29,-9.6 2.58,-19.2 3.75,-28.7 6.9,-59.1 10.3,-115.5 11.47,-166.2"/><path id="path240" style="fill:#a8d29f;fill-opacity:1;fill-rule:nonzero;stroke:none" d="m 6154.99,3336.6 c 46.37,127.1 198.93,126 338.44,170.8 139.62,44.8 342.59,211.6 342.59,211.6 0,0 -182,52.3 -416.88,60.2 -234.88,8 -264.15,-442.6 -264.15,-442.6"/><path id="path242" style="fill:#82b378;fill-opacity:1;fill-rule:nonzero;stroke:none" d="m 6154.99,3336.6 c 28.03,138.5 152.16,305.9 254.03,336.9 101.88,31 427,45.5 427,45.5 0,0 -182,52.3 -416.88,60.2 -234.88,8 -264.15,-442.6 -264.15,-442.6"/><path id="path244" style="fill:#82b378;fill-opacity:1;fill-rule:nonzero;stroke:none" d="m 6341.35,3049.2 c -122.69,12.3 -266.54,-7.9 -399.68,-60.6 234.91,79.1 519.96,-68 566.71,14 50.1,88.1 277.94,258.3 286.67,264.7 -191.77,-78.4 -329.26,-230.6 -453.7,-218.1"/><path id="path246" style="fill:#95c38b;fill-opacity:1;fill-rule:nonzero;stroke:none" d="m 5851.25,2946.9 c 6.99,3.1 15.58,7.4 26.01,13.2 -8.8,-4.2 -17.39,-8.6 -26.01,-13.2"/><path id="path248" style="fill:#82b378;fill-opacity:1;fill-rule:nonzero;stroke:none" d="m 6491.93,2996.8 v 0 c -46.16,174.5 -206.21,307.3 -332.35,387.9 -100.39,64.2 -252.31,137.4 -325.41,171.5 -15.45,7.2 -31.74,-8 -25.66,-24 l 16.09,-42.1 c 16.13,-42.3 49.82,-75.4 92.41,-90.6 130.89,-46.8 418.5,-171 512.59,-389.6 10.59,-24.5 70.7,-44.3 62.33,-13.1"/><path id="path250" style="fill:#2b478b;fill-opacity:1;fill-rule:nonzero;stroke:none" d="m 5856.36,4744.5 -28.28,6.9 c 93.8,192.9 260.67,339.4 397.57,415.6 119.86,66.7 218.99,96.9 254.57,106.7 8.68,2.4 17.87,0.2 24.62,-5.7 l 26.11,-23 c 12.91,-11.4 8.08,-33.1 -8.46,-37.9 -126.88,-36.6 -524.47,-171.4 -666.13,-462.6"/><path id="path252" style="fill:#f46c0f;fill-opacity:1;fill-rule:nonzero;stroke:none" d="m 5359.49,4623.6 c 88.38,358.4 290.27,308.6 539.32,247.1 249.04,-61.4 450.94,-111.2 362.55,-469.5 -63.34,-256.8 -316.58,-415.2 -565.63,-353.8 -249.05,61.4 -399.59,319.4 -336.24,576.2"/><path id="path254" style="fill:#ff9045;fill-opacity:1;fill-rule:nonzero;stroke:none" d="m 5492.75,4713.8 c 0,62 88.94,139.7 150.96,139.7 62.01,0 99.8,-64 99.8,-126 0,-62 -76.46,-126 -138.48,-126 -62.01,0 -112.28,50.3 -112.28,112.3"/><g transform="scale(1.71928)" id="g256"><path id="path258" style="fill:#d2e4ff;fill-opacity:1;fill-rule:nonzero;stroke:none" d="m 16300,3159.82 c 0,-685.41 -329.6,-1293.92 -839,-1675.53 -4.6,-3.38 -9,-6.69 -13.6,-9.95 -130.5,-96.26 -272.6,-177.57 -423.8,-241.73 -20.9,-8.84 -42.1,-17.39 -63.5,-25.65 -26.8,-10.35 -54,-20.24 -81.3,-29.49 -149.9,-50.72 -307.4,-84.86 -470.2,-100.33 -65.6,-6.28 -132.2,-9.48 -199.4,-9.6 h -1.5 c -1155.5,0 -2092.2,936.79 -2092.2,2092.28 0,1155.54 936.7,2092.27 2092.2,2092.27 1155.5,0 2092.3,-936.73 2092.3,-2092.27"/></g><g transform="scale(1.46548)" id="g260"><path id="path262" style="fill:#82b378;fill-opacity:1;fill-rule:nonzero;stroke:none" d="M 15889.5,5177.13 H 15610 c -225.8,0 -410.5,184.71 -410.5,410.51 v 279.5 c 0,225.79 184.7,410.51 410.5,410.51 h 279.5 c 225.8,0 410.5,-184.72 410.5,-410.51 v -279.5 c 0,-225.8 -184.7,-410.51 -410.5,-410.51"/></g><g transform="scale(1.41842)" id="g264"><path id="path266" style="fill:#ebf3fa;fill-opacity:1;fill-rule:nonzero;stroke:none" d="m 16247,5549.36 v 0 c -34.3,-10.09 -71.7,-1.41 -83.2,19.31 l -254.2,458.68 c -11.5,20.73 7.2,45.97 41.4,56.05 v 0 c 34.4,10.08 71.8,1.41 83.3,-19.31 l 254.2,-458.69 c 11.5,-20.72 -7.2,-45.96 -41.5,-56.04"/></g><g transform="scale(1.4487)" id="g268"><path id="path270" style="fill:#ebf3fa;fill-opacity:1;fill-rule:nonzero;stroke:none" d="m 15866.9,5434.32 v 0 c 34,-8.9 73.9,8.43 88.8,38.45 l 329.4,664.18 c 14.9,30.03 -0.7,61.85 -34.6,70.76 v 0 c -34,8.9 -73.9,-8.43 -88.8,-38.38 l -329.4,-664.18 c -14.9,-30.03 0.7,-61.92 34.6,-70.83"/></g><g transform="scale(1.65034)" id="g272"><path id="path274" style="fill:#9fc1f4;fill-opacity:1;fill-rule:nonzero;stroke:none" d="m 16300,4870.1 c -501.8,-118.22 -818.6,-525.72 -883.5,-616.06 -8.3,-11.39 -12.5,-17.82 -12.5,-17.82 l -409.6,166.4 c 4.2,8.48 8.5,17.02 12.9,25.38 210.7,405.37 615.1,623.03 910.7,733.31 138.1,-82.89 266.1,-180.75 382,-291.21"/></g><g transform="scale(1.56156)" id="g276"><path id="path278" style="fill:#2b478b;fill-opacity:1;fill-rule:nonzero;stroke:none" d="m 15831,4692.22 469,-199.35 -39.1,-91.9 -469,199.29 39.1,91.96"/></g><g transform="scale(1.59896)" id="g280"><path id="path282" style="fill:#ebf3fa;fill-opacity:1;fill-rule:nonzero;stroke:none" d="m 16300,1395.9 c -308.1,-158.47 -657.5,-248.03 -1027.9,-248.03 -523.6,0 -1005.4,178.99 -1387.7,479.12 l 1538.2,2865.67 458,-194.69 419.4,-2902.07"/></g><g transform="scale(1.62282)" id="g284"><path id="path286" style="fill:#ffffff;fill-opacity:1;fill-rule:nonzero;stroke:none" d="m 16232.6,2273.27 c 0,0 67.4,86.21 28.9,220.85 -38.5,134.58 -153.9,176.67 -153.9,176.67 0,0 93.6,73.33 82.9,126.2 -10.7,52.87 -203,33.65 -203,33.65 l -21.9,166.25 c 0,0 -66.1,71.17 -135.1,-30.69 -68.9,-101.92 0,-197.06 0,-197.06 0,0 -92.7,85.53 -145.7,51.88 0,0 55.3,264.42 -147.9,254.81 0,0 -37.4,353.09 -211.6,311.49 0,0 -280.9,-2.46 -244.2,-190.47 36.7,-188.01 263.3,-819.19 263.3,-819.19 l 888.2,-104.39"/></g><g transform="scale(1.46204)" id="g288"><path id="path290" style="fill:#ffc69f;fill-opacity:1;fill-rule:nonzero;stroke:none" d="m 16263.1,3487.31 v 0 c -28.1,-17.64 -65.7,-9.03 -83.4,19.15 l -55.5,99.73 c -17.6,28.18 -13,61.07 15.2,78.79 v 0 c 28.2,17.65 60.5,6.02 78.2,-22.23 l 64.8,-91.99 c 17.6,-28.18 9,-65.8 -19.3,-83.45"/></g><g transform="scale(1.44226)" id="g292"><path id="path294" style="fill:#ffc69f;fill-opacity:1;fill-rule:nonzero;stroke:none" d="m 16285.2,2954.4 v 0 c -14.7,-19.63 -42.9,-23.58 -62.5,-8.74 l -64.4,54.01 c -19.6,14.77 -25.1,38.62 -10.4,58.24 v 0 c 14.8,19.63 40.1,20.11 59.7,5.34 l 68.8,-46.31 c 19.6,-14.77 23.6,-42.92 8.8,-62.54"/></g><g transform="scale(1.48692)" id="g296"><path id="path298" style="fill:#ffc69f;fill-opacity:1;fill-rule:nonzero;stroke:none" d="m 16255.5,3721.79 v 0 c -31.3,-15.27 -69.4,-2.15 -84.7,29.19 l -46.6,109.82 c -15.3,31.34 -6.9,65.03 24.5,80.3 v 0 c 31.3,15.27 63.7,-0.4 78.9,-31.74 l 57.1,-102.9 c 15.3,-31.28 2.1,-69.41 -29.2,-84.67"/></g><g transform="scale(1.52061)" id="g300"><path id="path302" style="fill:#ffc69f;fill-opacity:1;fill-rule:nonzero;stroke:none" d="m 16262.4,3596.11 v 0 c -26.3,-12.89 -58.5,-1.84 -71.4,24.6 l -39.4,92.66 c -12.8,26.44 -5.7,54.85 20.8,67.74 v 0 c 26.3,12.88 53.6,-0.33 66.5,-26.77 l 48.2,-86.81 c 12.9,-26.43 1.8,-58.59 -24.7,-71.42"/></g><g transform="scale(1.62935)" id="g304"><path id="path306" style="fill:#ed985f;fill-opacity:1;fill-rule:nonzero;stroke:none" d="m 16300,1555.71 c -137.7,-101.57 -287.7,-187.37 -447.2,-255.07 -22.1,-9.33 -44.4,-18.35 -67,-27.06 -97.6,112.5 -215.2,213.15 -316.9,296 -15.7,12.83 -31.1,25.23 -46,37.14 -17.4,13.93 -35.4,28.96 -53.7,44.8 v 0.06 c -5.3,4.6 -10.7,9.27 -16.1,13.99 -40.5,35.66 -82.5,74.76 -124.1,115.02 -144.1,139.07 -282.2,289.68 -327.4,341.85 -60.2,69.48 -528.7,372.18 -587.7,523.52 -5.6,14.43 -7.5,27.56 -4.9,38.92 4.3,18.96 18.2,26.51 39.3,25.47 122.7,-5.65 482.4,-302.7 511,-295.46 33.5,8.47 -104,237.39 -280.5,534.08 -65.6,110.23 -91,184.92 -94.7,234.76 -0.7,8.95 -0.7,17 -0.1,24.36 v 0.06 c 5,61.07 49.7,72.79 74.4,69.84 0.7,0 1.3,-0.18 2,-0.24 54.6,-8.29 278.8,-348.61 389.2,-521.07 35.8,-55.85 59.6,-94.08 61.9,-97.7 -2,5.21 -28.1,73.83 -62.5,163 -53.2,137.91 -126.2,324.86 -160.6,402.25 -40.9,91.82 -79,197.38 -60.4,267.65 7.7,28.79 24.9,51.62 55.3,65.18 10.1,4.55 22.4,1.17 36.4,-8.65 135.3,-94.76 429.9,-791.48 458.4,-799.03 31.4,-8.47 -92.7,310.61 -174.2,539.54 -27.1,76.53 -31.1,128.03 -24.1,162.58 0.1,0.74 0.2,1.35 0.4,2.09 8.1,37.25 46,55.17 77.8,45.17 10.9,-3.38 21,-9.88 29,-19.95 188,-234.39 531.7,-884.28 572.1,-887.71 43.2,-3.69 99.1,8.89 92.2,214.74 -4.3,130.61 59.4,200.82 106.5,234.58 4.2,3 8.4,5.76 12.3,8.22 21.1,13.44 36.3,18.66 36.3,18.66 0,0 11.5,-64.88 34.2,-190.94 0,-0.49 0.2,-1.1 0.3,-1.65 7.2,-40.02 15.6,-86.17 25,-138.4 39.6,-217.7 197.8,-428.09 123.3,-631.18 -31.4,-85.61 -6.8,-217.38 31.9,-341.3 0.1,-0.24 0.2,-0.37 0.3,-0.55 24,-76.66 53.5,-150.06 78.6,-207.57"/></g><g transform="scale(1.60366)" id="g308"><path id="path310" style="fill:#ffc69f;fill-opacity:1;fill-rule:nonzero;stroke:none" d="m 16257.7,3145.06 c 0,0 14.1,-75.45 42.3,-221.86 -4.6,-1.56 -9.4,-2.44 -14.5,-2.75 -34.5,-2.18 -65.2,24.26 -68.1,58.62 l -4.3,118.04 c 0,0.12 0,0.25 0,0.31 -1.1,15.65 7.8,30.37 21.8,37.54 13.8,7.17 22.8,10.1 22.8,10.1"/></g><g transform="scale(1.61085)" id="g312"><path id="path314" style="fill:#ffffff;fill-opacity:1;fill-rule:nonzero;stroke:none" d="m 15310.5,2690.63 c 0,0 292.1,93.25 422.8,-177.98 0,0 96.9,92 174.4,-24.21 0,0 160.2,125.9 276.3,0 116,-125.95 -12.2,-339.01 -149.1,-300.27 0,0 139.2,-48.43 85.9,-193.75 -53.3,-145.27 -232.4,-174.32 -232.4,-174.32 0,0 -159.9,-184.06 -319.7,-38.74 0,0 -116.2,-96.9 -188.8,14.53 -72.7,111.37 -69.4,894.74 -69.4,894.74"/></g><g transform="scale(1.50388)" id="g316"><path id="path318" style="fill:#ffffff;fill-opacity:1;fill-rule:nonzero;stroke:none" d="m 14957.6,2686.19 c 0,0 11.8,173.75 136.2,195.83 124.6,22.01 0,65.63 0,65.63 0,0 -223.8,309.26 179.1,433.74 402.8,124.48 509.1,-347.63 509.1,-347.63 l -89.5,415.66 c 0,0 101.7,8.58 163.9,-68.03 62.3,-76.6 46.7,-147.48 46.7,-147.48 0,0 105.6,15.16 182.9,-38.04 77.2,-53.19 -64.7,-197.29 -64.7,-197.29 0,0 74.8,86.05 176.8,-50.93 101.9,-136.98 -113.2,-261.46 -113.2,-261.46 l -928.8,-159.52 -198.5,159.52"/></g><g transform="scale(1.56937)" id="g320"><path id="path322" style="fill:#ffb27d;fill-opacity:1;fill-rule:nonzero;stroke:none" d="m 16018.7,1597.08 c -16.8,24.59 -39.5,69.39 -62.1,117.56 v 0.06 c -18.5,39.51 -36.9,81.44 -51.9,115.97 -0.1,0.19 -0.1,0.32 -0.2,0.58 -40.2,128.65 -65.8,265.45 -33.1,354.34 77.3,210.85 -87,429.28 -128.1,655.3 -9.8,54.22 -18.4,102.14 -26,143.69 -0.1,0.57 -0.2,1.21 -0.3,1.72 -23.5,130.88 -35.4,198.23 -35.4,198.23 0,0 -15.9,-5.42 -37.9,-19.37 -4,-2.55 -8.3,-5.42 -12.7,-8.54 -46.8,-33.64 -109.4,-101.89 -110.6,-226.78 -0.1,-5.54 -0.1,-11.08 0.1,-16.76 0.6,-18.54 0.8,-35.42 0.5,-51.04 -3.3,-164.84 -55.3,-175.42 -96.2,-171.91 -29.3,2.55 -212.8,333.38 -387.2,615.28 -74.9,121.13 -148.1,233.21 -206.7,306.36 -8.4,10.45 -18.9,17.21 -30.2,20.71 -33.1,10.39 -72.4,-8.22 -80.8,-46.9 -0.2,-0.76 -0.3,-1.4 -0.5,-2.16 -7.1,-35.88 -3,-89.34 25.2,-168.8 84.6,-237.67 213.5,-568.95 180.8,-560.16 -29.5,7.84 -335.3,730.74 -475.8,829.51 l -0.1,0.06 c -14.5,10.13 -27.3,13.7 -37.8,8.98 -31.6,-14.08 -49.4,-37.78 -57.4,-67.67 -19.3,-72.96 20.2,-182.55 62.6,-277.88 58.8,-132.35 226.5,-573.1 231.7,-586.86 -9.7,15.55 -393.2,630.96 -468.4,642.43 -0.6,0.06 -1.3,0.25 -1.9,0.25 -25.8,3.06 -72.2,-9.11 -77.4,-72.51 v -0.07 c -4.1,-50.72 18.3,-134.19 98.4,-269.02 183.3,-308.02 326,-545.7 291.3,-554.49 -29.7,-7.52 -403.2,300.88 -530.5,306.75 -21.9,1.08 -36.4,-6.76 -40.9,-26.45 -2.7,-11.79 -0.7,-25.42 5.1,-40.4 61.3,-157.13 547.8,-471.4 610.2,-543.53 68.4,-79.01 342.5,-375.88 541.2,-535.44 15.5,-12.36 31.4,-25.23 47.8,-38.55 148.3,-120.81 329.2,-278.39 439.6,-454.77 0.6,-1.78 1.2,-3.5 1.8,-5.28 h 1.6 c 73.6,0.12 146.5,3.63 218.4,10.51 178.4,16.95 350.9,54.35 515.1,109.91 -92.3,91.76 -232.4,235.13 -281.3,307.14"/></g><g transform="scale(1.37186)" id="g324"><path id="path326" style="fill:#ffc69f;fill-opacity:1;fill-rule:nonzero;stroke:none" d="m 16260.7,3716.55 v 0 c -30.1,-18.81 -70.1,-9.62 -88.9,20.41 l -59.1,106.28 c -18.9,30.03 -14,65.09 16.1,83.97 v 0 c 30.1,18.8 64.6,6.42 83.4,-23.69 l 68.9,-98.04 c 18.9,-30.04 9.7,-70.13 -20.4,-88.93"/></g><g transform="scale(1.35208)" id="g328"><path id="path330" style="fill:#ffc69f;fill-opacity:1;fill-rule:nonzero;stroke:none" d="m 16284.2,3151.44 v 0 c -15.7,-20.93 -45.7,-25.14 -66.7,-9.32 l -68.7,57.62 c -20.9,15.75 -26.8,41.19 -11,62.12 v 0 c 15.8,20.94 42.8,21.45 63.7,5.7 l 73.4,-49.41 c 20.9,-15.75 25.1,-45.78 9.3,-66.71"/></g><g transform="scale(1.39674)" id="g332"><path id="path334" style="fill:#ffc69f;fill-opacity:1;fill-rule:nonzero;stroke:none" d="m 16252.6,3962.08 v 0 c -33.3,-16.25 -73.9,-2.29 -90.1,31.07 l -49.7,116.91 c -16.3,33.37 -7.3,69.24 26.1,85.49 v 0 c 33.3,16.25 67.7,-0.43 84,-33.79 l 60.8,-109.54 c 16.3,-33.3 2.3,-73.89 -31.1,-90.14"/></g><g transform="scale(1.43043)" id="g336"><path id="path338" style="fill:#ffc69f;fill-opacity:1;fill-rule:nonzero;stroke:none" d="m 16260.2,3822.84 v 0 c -28.2,-13.7 -62.3,-1.96 -76,26.14 l -41.8,98.51 c -13.7,28.1 -6.1,58.3 21.9,72 v 0 c 28.1,13.7 57.1,-0.35 70.8,-28.45 l 51.3,-92.28 c 13.6,-28.1 1.9,-62.29 -26.2,-75.92"/></g><g transform="scale(1.51348)" id="g340"><path id="path342" style="fill:#ffc69f;fill-opacity:1;fill-rule:nonzero;stroke:none" d="m 16255.1,3332.46 c 0,0 15,-79.95 44.9,-235.09 -4.8,-1.65 -10,-2.58 -15.5,-2.91 -36.4,-2.31 -68.9,25.7 -72.1,62.11 l -4.4,125.08 c 0,0.13 0,0.26 0,0.33 -1.3,16.58 8.2,32.17 23,39.77 14.6,7.6 24.1,10.71 24.1,10.71"/></g><g transform="scale(1.46274)" id="g344"><path id="path346" style="fill:#ffffff;fill-opacity:1;fill-rule:nonzero;stroke:none" d="m 16030,4187.41 c 0,74.58 60.5,135.02 135,135.02 74.6,0 135,-60.44 135,-135.02 0,-74.52 -60.4,-134.95 -135,-134.95 -74.5,0 -135,60.43 -135,134.95"/></g><g transform="scale(1.42409)" id="g348"><path id="path350" style="fill:#ffffff;fill-opacity:1;fill-rule:nonzero;stroke:none" d="m 16115.1,4554.76 c 0,51.05 41.4,92.41 92.4,92.41 51.1,0 92.5,-41.36 92.5,-92.41 0,-51.05 -41.4,-92.41 -92.5,-92.41 -51,0 -92.4,41.36 -92.4,92.41"/></g><g transform="scale(1.64142)" id="g352"><path id="path354" style="fill:#ffffff;fill-opacity:1;fill-rule:nonzero;stroke:none" d="m 16054.3,3150.56 c 6.2,66.16 64.7,114.84 130.9,108.69 66.1,-6.16 114.8,-64.7 108.6,-130.87 -6.1,-66.16 -64.7,-114.84 -130.8,-108.68 -66.2,6.15 -114.9,64.76 -108.7,130.86"/></g><g transform="scale(1.60478)" id="g356"><path id="path358" style="fill:#ffffff;fill-opacity:1;fill-rule:nonzero;stroke:none" d="m 16132.4,3475.37 c 4.2,45.12 44.2,78.33 89.3,74.09 45.1,-4.18 78.3,-44.12 74.1,-89.23 -4.2,-45.12 -44.2,-78.27 -89.3,-74.09 -45.1,4.17 -78.2,44.11 -74.1,89.23"/></g><g transform="scale(1.45223)" id="g360"><path id="path362" style="fill:#ffffff;fill-opacity:1;fill-rule:nonzero;stroke:none" d="m 16145.3,4888.89 c 0,42.69 34.6,77.32 77.4,77.32 42.7,0 77.3,-34.63 77.3,-77.32 0,-42.77 -34.6,-77.4 -77.3,-77.4 -42.8,0 -77.4,34.63 -77.4,77.4"/></g><g transform="scale(1.59625)" id="g364"><path id="path366" style="fill:#ed985f;fill-opacity:1;fill-rule:nonzero;stroke:none" d="m 16143.6,2433.01 c 0,43.17 35,78.19 78.2,78.19 43.2,0 78.2,-35.02 78.2,-78.19 0,-43.22 -35,-78.24 -78.2,-78.24 -43.2,0 -78.2,35.02 -78.2,78.24"/></g><g transform="scale(1.56499)" id="g368"><path id="path370" style="fill:#ed985f;fill-opacity:1;fill-rule:nonzero;stroke:none" d="m 16232.1,1884.3 c 2,18.21 18.3,31.37 36.5,29.39 18.2,-1.98 31.4,-18.34 29.4,-36.55 -2,-18.21 -18.3,-31.37 -36.5,-29.39 -18.2,1.98 -31.4,18.34 -29.4,36.55"/></g><g transform="scale(1.14721)" id="g372"/><path id="path398" style="fill:#ffa412;fill-opacity:1;fill-rule:nonzero;stroke:none" d="m 12573.1,4040.8 c 0,0 -11.4,-24 -31.8,-67.9 -52.3,-112 -163.9,-353.3 -296.5,-655.7 -44.3,57.9 -87,117.4 -127.9,178 -115.8,171.9 -217.2,354.2 -302.2,545.6 h 758.4"/><path id="path402" style="fill:#ebf3fa;fill-opacity:1;fill-rule:nonzero;stroke:none" d="m 14885.4,6357.2 c -17.6,-1.8 -35.4,0 -52.6,4.1 -34.2,8.1 -84.6,34.1 -128.2,44.1 -80.2,18.2 -108.8,-40.1 -94.5,-91.1 14.3,-51.1 116.3,-113 214.7,-105.7 98.4,7.2 127.6,91.4 127.6,102.2 0,10 14.1,54.7 -67,46.4"/><g transform="scale(1.08188)" id="g412"><path id="path414" style="fill:#b5453c;fill-opacity:1;fill-rule:nonzero;stroke:none" d="m 16281.2,4875.78 c -10.1,2.78 -23.1,-10.81 -32,-31.89 l -111.4,30.79 c 8.4,24.58 13.1,50.83 13.1,78.28 0,18.03 -2.1,35.59 -5.8,52.51 l 108.5,3.78 c 3.8,-22.64 13.2,-38.91 23.8,-38.54 13,0.46 22.6,25.98 21.6,56.94 -1.1,30.96 -12.6,55.74 -25.6,55.28 -10.5,-0.38 -18.8,-17.2 -21,-40.03 l -117.4,-4.06 c -11,28.92 -27.4,55.27 -47.9,77.64 l 107.5,68.77 c 14.8,-17.57 31.2,-26.72 40.1,-21.08 10.9,7.03 6.2,33.92 -10.4,59.99 -16.7,26.16 -39.2,41.69 -50.2,34.66 -8.9,-5.73 -7.4,-24.4 2.3,-45.2 l -114.3,-73.11 c -20.8,17.1 -44.6,30.5 -70.4,39.93 l 41.5,131.72 c 22.5,-3.98 41,-0.47 44.1,9.52 4,12.47 -16.9,30.04 -46.5,39.37 -29.5,9.34 -56.6,6.75 -60.6,-5.63 -3.1,-10.08 10.1,-23.48 30.8,-33.19 l -41.6,-132.18 c -16.5,3.52 -33.5,5.45 -51,5.45 -9.6,0 -18.8,-0.64 -28,-1.75 l -59.6,128.94 c 19.4,12.3 30.7,27.27 26.3,36.79 -5.5,11.83 -32.7,10.91 -60.8,-2.13 -28.2,-12.94 -46.6,-33.09 -41.2,-44.92 4.5,-9.52 23.2,-10.63 45.1,-3.88 l 56.1,-121.36 c -35,-9.25 -67,-25.98 -93.9,-48.53 l -92.8,107.5 c 11.6,12.94 16.8,26.25 11.5,32.35 -6.4,7.49 -26.1,1.02 -43.9,-14.33 -17.8,-15.34 -27,-33.92 -20.5,-41.4 5.1,-6.01 19.1,-2.87 33.6,6.65 l 93.6,-108.33 c -18,-18.58 -32.9,-40.02 -44.1,-63.5 l -126.4,59.62 c 6.9,21.81 6,40.57 -3.5,45.1 -11.7,5.55 -32,-12.66 -45.3,-40.67 -13.2,-28.1 -14.4,-55.27 -2.6,-60.91 9.5,-4.44 24.6,6.75 37,26.07 l 128.2,-60.55 c -5.2,-16.17 -8.6,-33.09 -10.3,-50.56 l -129.8,-28.19 c -8.2,22.65 -20.8,37.81 -31.6,35.49 -13.2,-2.86 -18.3,-31.05 -11.3,-62.94 6.9,-31.98 23.3,-55.46 36.5,-52.6 10.6,2.32 15.9,21.36 13.9,45.39 l 121.9,26.43 c 1.6,-30.04 8.7,-58.6 20.3,-84.85 l -101,-69.32 c -15.4,17.01 -32,25.69 -40.7,19.78 -10.8,-7.4 -5.3,-34.11 12.3,-59.71 17.6,-25.51 40.5,-40.3 51.2,-32.91 8.7,6.01 6.6,24.59 -3.8,45.11 l 98,67.2 c 18.9,-30.32 44.4,-56.11 74.3,-75.43 l -30.1,-108.33 c -22.8,3.24 -41.1,-0.83 -43.9,-11 -3.5,-12.47 17.8,-29.39 47.8,-37.8 29.8,-8.32 56.8,-4.9 60.3,7.67 2.9,10.17 -10.7,23.11 -31.8,32.07 l 28.1,100.75 c 30.7,-14.04 64.8,-22.18 100.9,-22.18 3.9,0 7.8,0.46 11.8,0.65 l 4,-119.7 c -22.7,-3.79 -38.9,-13.13 -38.6,-23.66 0.4,-13.04 25.9,-22.74 56.9,-21.72 30.9,1.01 55.7,12.38 55.3,25.41 -0.3,10.54 -17.2,18.77 -40,21.08 l -4,122.38 c 29.6,5.63 57.2,16.73 81.9,31.98 l 68.1,-98.63 c -17,-15.34 -25.7,-32.07 -19.7,-40.76 7.4,-10.72 34.1,-5.08 59.6,12.48 25.5,17.65 40.2,40.58 32.8,51.3 -5.9,8.69 -24.6,6.56 -45,-3.88 l -68.3,98.99 c 25.4,21.17 46.3,47.42 61.4,77.18 l 115.6,-31.98 c -3.1,-22.74 0.9,-41.04 11.1,-43.9 12.6,-3.42 29.4,17.93 37.7,47.78 8.2,29.95 4.8,56.94 -7.8,60.45"/></g><g transform="scale(1.69033)" id="g416"><path id="path418" style="fill:#82b378;fill-opacity:1;fill-rule:nonzero;stroke:none" d="m 15944.1,8966.77 h -242.3 c -195.8,0 -356,160.16 -356,355.92 V 9565 c 0,195.76 160.2,355.92 356,355.92 h 242.3 c 195.8,0 355.9,-160.16 355.9,-355.92 v -242.31 c 0,-195.76 -160.1,-355.92 -355.9,-355.92"/></g><g transform="scale(1.64326)" id="g420"><path id="path422" style="fill:#ebf3fa;fill-opacity:1;fill-rule:nonzero;stroke:none" d="m 16254.3,9396.68 v 0 c -29.6,-8.72 -62,-1.21 -71.9,16.68 l -219.4,395.9 c -9.9,17.9 6.2,39.68 35.8,48.39 v 0 c 29.6,8.72 62,1.21 71.9,-16.68 l 219.4,-395.91 c 9.9,-17.89 -6.2,-39.67 -35.8,-48.38"/></g><g transform="scale(1.67355)" id="g424"><path id="path426" style="fill:#ebf3fa;fill-opacity:1;fill-rule:nonzero;stroke:none" d="m 15925,9227.46 v 0 c 29.4,-7.7 64,7.25 76.9,33.25 l 285.2,574.94 c 12.9,25.99 -0.6,53.55 -30,61.26 v 0 c -29.4,7.71 -64,-7.25 -76.9,-33.24 l -285.1,-574.94 c -12.9,-25.99 0.6,-53.56 29.9,-61.27"/></g></g></g><path d="M 2668.3203125 1005.5653076171875" style="fill: rgb(210, 228, 255); fill-opacity: 1; stroke: rgb(0, 0, 0); stroke-opacity: 1; stroke-width: 0; paint-order: fill;"/></g></svg>